# xmcd
#
# Track frame offsets:
#	150
#	21841
#	41763
#	58072
#	80416
#	99065
#	116843
#	135904
#	154056
#	175288
#	192282
#	207343
#	224070
#	243344
#	258869
#	275218
#	290990
#	304698
#	320275
#
# Disc length: 4460 seconds
#
# Revision: 2
# Processed by: cddbd v1.4PL0 Copyright (c) Steve Scherf et al.
# Submitted via: EZCDDA 4.3.2
#
DISCID=1c116a13
DTITLE=Lionel Richie - Truly The Love Songs
DYEAR=1900
DGENRE=
TTITLE0=My Destiny
TTITLE1=Endless Love
TTITLE2=Three Times A Lady
TTITLE3=Don't Wanna Lose You
TTITLE4=Hello
TTITLE5=Sail On
TTITLE6=Easy
TTITLE7=Say You, Say Me
TTITLE8=Do It To Me
TTITLE9=Penny Lover
TTITLE10=Truly
TTITLE11=Still
TTITLE12=Love Will Conquer All
TTITLE13=Sweet Love
TTITLE14=Ballerina Girl
TTITLE15=Still In Love
TTITLE16=Oh No
TTITLE17=Just To Be Close To You
TTITLE18=Stuck On You
EXTD=
EXTT0=
EXTT1=
EXTT2=
EXTT3=
EXTT4=
EXTT5=
EXTT6=
EXTT7=
EXTT8=
EXTT9=
EXTT10=
EXTT11=
EXTT12=
EXTT13=
EXTT14=
EXTT15=
EXTT16=
EXTT17=
EXTT18=
PLAYORDER=
